<?xml version="1.0" encoding="iso-8859-1"?>
<!-- Generator: Adobe Illustrator 19.0.0, SVG Export Plug-In . SVG Version: 6.00 Build 0)  -->
<svg version="1.1" id="Layer_1" xmlns="http://www.w3.org/2000/svg" xmlns:xlink="http://www.w3.org/1999/xlink" x="0px" y="0px"
	 viewBox="0 0 512.004 512.004" style="enable-background:new 0 0 512.004 512.004;" xml:space="preserve">
<g>
	<polygon style="fill:#DFE3E6;" points="52.967,247.176 141.243,247.176 141.243,167.728 52.967,167.728 	"/>
	<polygon style="fill:#C6C9CB;" points="61.795,167.728 132.416,167.728 132.416,141.245 61.795,141.245 	"/>
	<polygon style="fill:#DFE3E6;" points="70.622,141.245 123.588,141.245 123.588,88.403 70.622,88.403 	"/>
	<path style="fill:#C6C9CB;" d="M123.588,35.436H70.622c10.69,16.031,10.69,36.926,0,52.966h52.966
		C112.898,72.361,112.898,51.467,123.588,35.436"/>
	<polygon style="fill:#DFE3E6;" points="88.278,0 105.933,0 123.588,35.434 70.622,35.434 	"/>
	<polygon style="fill:#C6C9CB;" points="61.795,282.486 132.416,282.486 132.416,247.176 61.795,247.176 	"/>
	<polygon style="fill:#DFE3E6;" points="211.864,247.176 300.14,247.176 300.14,167.728 211.864,167.728 	"/>
	<polygon style="fill:#C6C9CB;" points="220.691,167.728 291.312,167.728 291.312,141.245 220.691,141.245 	"/>
	<polygon style="fill:#DFE3E6;" points="229.519,141.245 282.485,141.245 282.485,88.403 229.519,88.403 	"/>
	<path style="fill:#C6C9CB;" d="M282.485,35.436h-52.966c10.69,16.031,10.69,36.926,0,52.966h52.966
		C271.794,72.361,271.794,51.467,282.485,35.436"/>
	<polygon style="fill:#DFE3E6;" points="247.174,0 264.829,0 282.485,35.434 229.519,35.434 	"/>
	<polygon style="fill:#C6C9CB;" points="220.691,282.486 291.312,282.486 291.312,247.176 220.691,247.176 	"/>
	<polygon style="fill:#DFE3E6;" points="370.76,247.176 459.036,247.176 459.036,167.728 370.76,167.728 	"/>
	<polygon style="fill:#C6C9CB;" points="379.588,167.728 450.209,167.728 450.209,141.245 379.588,141.245 	"/>
	<polygon style="fill:#DFE3E6;" points="388.416,141.245 441.381,141.245 441.381,88.403 388.416,88.403 	"/>
	<path style="fill:#C6C9CB;" d="M441.381,35.436h-52.966c10.69,16.031,10.69,36.926,0,52.966h52.966
		C430.691,72.361,430.691,51.467,441.381,35.436"/>
	<polygon style="fill:#DFE3E6;" points="406.071,0 423.726,0 441.381,35.434 388.416,35.434 	"/>
	<polygon style="fill:#C6C9CB;" points="379.588,282.486 450.209,282.486 450.209,247.176 379.588,247.176 	"/>
	<g>
		<polygon style="fill:#8B8C8D;" points="79.45,512.004 114.76,512.004 114.76,282.486 79.45,282.486 		"/>
		<polygon style="fill:#8B8C8D;" points="238.347,512.004 273.657,512.004 273.657,282.486 238.347,282.486 		"/>
		<polygon style="fill:#8B8C8D;" points="397.243,512.004 432.553,512.004 432.553,282.486 397.243,282.486 		"/>
	</g>
</g>
<g>
</g>
<g>
</g>
<g>
</g>
<g>
</g>
<g>
</g>
<g>
</g>
<g>
</g>
<g>
</g>
<g>
</g>
<g>
</g>
<g>
</g>
<g>
</g>
<g>
</g>
<g>
</g>
<g>
</g>
</svg>
