<?xml version="1.0" encoding="iso-8859-1"?>
<!-- Generator: Adobe Illustrator 19.0.0, SVG Export Plug-In . SVG Version: 6.00 Build 0)  -->
<svg version="1.1" id="Layer_1" xmlns="http://www.w3.org/2000/svg" xmlns:xlink="http://www.w3.org/1999/xlink" x="0px" y="0px"
	 viewBox="0 0 512 512" style="enable-background:new 0 0 512 512;" xml:space="preserve">
<g transform="translate(-1)">
	<path style="fill:#DBB780;" d="M278.385,358.409c-4.241,0-7.919-3.157-8.457-7.475c-2.338-18.697,0.102-30.276,2.065-39.578
		c2.039-9.66,3.268-15.497-1.434-26.359c-1.869-4.318,0.128-9.344,4.446-11.221c4.326-1.877,9.344,0.128,11.221,4.446
		c6.861,15.846,4.727,25.958,2.466,36.659c-1.792,8.474-3.814,18.082-1.835,33.937c0.589,4.676-2.731,8.943-7.407,9.523
		C279.093,358.383,278.735,358.409,278.385,358.409"/>
	<path style="fill:#C03A2B;" d="M261.327,358.4c-2.884,0-5.436-1.434-6.972-3.618c-11.068-14.106-10.556-26.317-10.086-37.103
		c0.435-10.163,0.811-18.944-7.202-31.479c-2.534-3.977-1.365-9.25,2.603-11.785c3.977-2.534,9.25-1.365,11.785,2.603
		c10.897,17.075,10.325,30.558,9.865,41.387c-0.418,9.779-0.725,16.845,6.682,26.121c1.203,1.519,1.86,3.388,1.86,5.325
		C269.86,354.569,266.046,358.4,261.327,358.4"/>
	<path style="fill:#178E47;" d="M295.46,358.409c-4.71,0-8.533-3.814-8.533-8.533c0-11.051,5.513-18.236,10.854-25.182
		c6.912-9.003,14.746-19.2,14.746-43.085c0-4.719,3.823-8.533,8.533-8.533c4.719,0,8.533,3.814,8.533,8.533
		c0,29.687-10.556,43.435-18.278,53.487c-4.804,6.255-7.322,9.762-7.322,14.78C303.994,354.594,300.179,358.409,295.46,358.409"/>
	<path style="fill:#DBB780;" d="M286.927,247.467c-3.302,0-6.434-1.929-7.834-5.146c-6.852-15.846-4.719-25.958-2.466-36.651
		c1.792-8.482,3.814-18.082,1.835-33.946c-0.589-4.676,2.731-8.943,7.407-9.523c4.651-0.546,8.943,2.722,9.523,7.407
		c2.338,18.705-0.102,30.276-2.065,39.578c-2.031,9.66-3.268,15.497,1.434,26.359c1.869,4.318-0.119,9.344-4.454,11.221
		C289.214,247.245,288.062,247.467,286.927,247.467"/>
	<path style="fill:#C03A2B;" d="M321.069,247.467c-2.816,0-5.572-1.391-7.202-3.942c-10.897-17.067-10.325-30.549-9.856-41.387
		c0.418-9.771,0.717-16.836-6.682-26.112c-1.212-1.519-1.869-3.396-1.869-5.325c0-4.719,3.814-8.55,8.533-8.55
		c2.918,0,5.487,1.451,7.023,3.678c11.017,14.08,10.505,26.274,10.044,37.043c-0.435,10.163-0.819,18.935,7.194,31.471
		c2.543,3.968,1.374,9.25-2.603,11.785C324.226,247.031,322.648,247.467,321.069,247.467"/>
	<path style="fill:#178E47;" d="M244.26,247.467c-4.719,0-8.533-3.814-8.533-8.533c0-29.687,10.564-43.435,18.278-53.487
		c4.804-6.255,7.322-9.762,7.322-14.78c0-4.719,3.814-8.533,8.533-8.533s8.533,3.814,8.533,8.533
		c0,11.051-5.513,18.236-10.846,25.182c-6.921,9.003-14.754,19.2-14.754,43.085C252.794,243.652,248.979,247.467,244.26,247.467"/>
	<g>
		<path style="fill:#ECF0F1;" d="M500.26,512h-34.133c-4.719,0-8.533-3.814-8.533-8.533V102.4c0-28.237-22.963-51.2-51.2-51.2
			h-42.667c-28.237,0-51.2,22.963-51.2,51.2v68.267c0,4.719-3.814,8.533-8.533,8.533H269.86c-4.719,0-8.533-3.814-8.533-8.533V102.4
			c0-56.465,45.935-102.4,102.4-102.4h42.667c56.465,0,102.4,45.935,102.4,102.4v401.067C508.794,508.186,504.979,512,500.26,512"/>
		<path style="fill:#ECF0F1;" d="M201.594,512h-25.6c-56.465,0-102.4-45.833-102.4-102.178V384c0-4.719,3.814-8.533,8.533-8.533
			h34.074c4.71,0,8.525,3.806,8.533,8.516l0.06,25.822c0,28.126,22.963,50.995,51.2,50.995h25.6c28.237,0,51.2-22.869,51.2-50.978
			v-59.955c0-4.719,3.814-8.533,8.533-8.533h34.133c4.719,0,8.533,3.814,8.533,8.533V409.6C303.994,466.065,258.059,512,201.594,512
			"/>
	</g>
	<polygon style="fill:#BDC3C7;" points="39.332,110.937 158.799,110.937 158.799,8.537 39.332,8.537 	"/>
	<g>
		<path style="fill:#FFFFFF;" d="M73.469,76.8c-4.719,0-8.533-3.814-8.533-8.533v-25.6c0-4.719,3.814-8.533,8.533-8.533
			c4.719,0,8.533,3.814,8.533,8.533v25.6C82.002,72.986,78.188,76.8,73.469,76.8"/>
		<path style="fill:#FFFFFF;" d="M124.669,76.8c-4.719,0-8.533-3.814-8.533-8.533v-25.6c0-4.719,3.814-8.533,8.533-8.533
			c4.719,0,8.533,3.814,8.533,8.533v25.6C133.202,72.986,129.388,76.8,124.669,76.8"/>
	</g>
	<path style="fill:#ECF0F1;" d="M175.244,332.8H23.017c-12.587,0-21.197-12.715-16.521-24.405l0.7-1.741
		c4.361-10.914,6.605-22.554,6.605-34.304V119.467c0-4.719,3.814-8.533,8.533-8.533h153.6c4.71,0,8.533,3.814,8.533,8.533V272.35
		c0,11.75,2.244,23.39,6.596,34.304l0.708,1.741C196.44,320.085,187.839,332.8,175.244,332.8"/>
	<path style="fill:#BDC3C7;" d="M124.736,384h-51.2c-4.719,0-8.533-3.814-8.533-8.533V332.8h68.267v42.667
		C133.269,380.186,129.446,384,124.736,384"/>
</g>
<g>
</g>
<g>
</g>
<g>
</g>
<g>
</g>
<g>
</g>
<g>
</g>
<g>
</g>
<g>
</g>
<g>
</g>
<g>
</g>
<g>
</g>
<g>
</g>
<g>
</g>
<g>
</g>
<g>
</g>
</svg>
