<?xml version="1.0" encoding="iso-8859-1"?>
<!-- Generator: Adobe Illustrator 19.0.0, SVG Export Plug-In . SVG Version: 6.00 Build 0)  -->
<svg version="1.1" id="Layer_1" xmlns="http://www.w3.org/2000/svg" xmlns:xlink="http://www.w3.org/1999/xlink" x="0px" y="0px"
	 viewBox="0 0 503.716 503.716" style="enable-background:new 0 0 503.716 503.716;" xml:space="preserve">
<g>
	<path style="fill:#DBB780;" d="M298.013,352.314c-4.172,0-7.789-3.106-8.318-7.353c-2.3-18.39,0.101-29.78,2.031-38.929
		c2.006-9.501,3.215-15.243-1.41-25.927c-1.838-4.247,0.126-9.191,4.373-11.037c4.255-1.847,9.191,0.126,11.037,4.373
		c6.748,15.587,4.65,25.533,2.426,36.058c-1.763,8.335-3.752,17.786-1.805,33.381c0.579,4.6-2.686,8.796-7.285,9.367
		C298.71,352.289,298.358,352.314,298.013,352.314"/>
	<path style="fill:#C03A2B;" d="M281.235,352.306c-2.837,0-5.347-1.41-6.857-3.559c-10.886-13.874-10.383-25.885-9.921-36.495
		c0.428-9.997,0.797-18.633-7.084-30.963c-2.493-3.911-1.343-9.098,2.56-11.591c3.911-2.493,9.099-1.343,11.591,2.56
		c10.718,16.795,10.156,30.057,9.703,40.708c-0.411,9.619-0.713,16.569,6.572,25.692c1.183,1.494,1.83,3.332,1.83,5.237
		C289.628,348.537,285.876,352.306,281.235,352.306"/>
	<path style="fill:#178E47;" d="M314.809,352.314c-4.633,0-8.393-3.752-8.393-8.393c0-10.87,5.422-17.937,10.676-24.769
		c6.799-8.855,14.504-18.885,14.504-42.378c0-4.642,3.76-8.393,8.393-8.393c4.642,0,8.393,3.752,8.393,8.393
		c0,29.201-10.383,42.723-17.979,52.61c-4.726,6.152-7.202,9.602-7.202,14.537C323.202,348.562,319.45,352.314,314.809,352.314"/>
	<path style="fill:#DBB780;" d="M306.415,243.191c-3.248,0-6.329-1.897-7.705-5.061c-6.74-15.587-4.642-25.533-2.426-36.05
		c1.763-8.343,3.752-17.786,1.805-33.389c-0.579-4.6,2.686-8.796,7.286-9.367c4.574-0.537,8.796,2.678,9.367,7.286
		c2.3,18.398-0.101,29.78-2.031,38.929c-1.998,9.501-3.215,15.242,1.41,25.927c1.838,4.247-0.118,9.191-4.381,11.037
		C308.665,242.973,307.532,243.191,306.415,243.191"/>
	<path style="fill:#C03A2B;" d="M339.997,243.191c-2.77,0-5.481-1.368-7.084-3.878c-10.718-16.787-10.156-30.049-9.694-40.708
		c0.411-9.611,0.705-16.56-6.572-25.684c-1.192-1.494-1.838-3.341-1.838-5.238c0-4.642,3.752-8.41,8.393-8.41
		c2.871,0,5.397,1.427,6.908,3.618c10.836,13.849,10.332,25.843,9.879,36.436c-0.428,9.997-0.806,18.625,7.076,30.955
		c2.501,3.903,1.351,9.099-2.56,11.591C343.103,242.763,341.55,243.191,339.997,243.191"/>
	<path style="fill:#178E47;" d="M264.448,243.191c-4.642,0-8.393-3.752-8.393-8.393c0-29.201,10.391-42.723,17.979-52.61
		c4.726-6.152,7.202-9.602,7.202-14.537c0-4.642,3.752-8.393,8.393-8.393c4.642,0,8.393,3.752,8.393,8.393
		c0,10.87-5.422,17.937-10.668,24.769c-6.807,8.855-14.512,18.885-14.512,42.378C272.841,239.439,269.09,243.191,264.448,243.191"/>
	<g>
		<path style="fill:#ECF0F1;" d="M491.071,503.716h-33.574c-4.642,0-8.393-3.752-8.393-8.393V100.721
			c0-27.766-22.587-50.361-50.361-50.361h-16.787c-27.774,0-50.361,22.595-50.361,50.361v67.148c0,4.642-3.752,8.393-8.393,8.393
			h-33.574c-4.642,0-8.393-3.752-8.393-8.393v-67.148C281.235,45.182,326.417,0,381.956,0h16.787
			c55.539,0,100.721,45.182,100.721,100.721v394.601C499.464,499.964,495.713,503.716,491.071,503.716"/>
		<path style="fill:#ECF0F1;" d="M222.481,503.609H197.3c-55.539,0-100.721-45.182-100.721-100.721l-0.025-25.172
			c0-2.233,0.89-4.365,2.459-5.943c1.578-1.578,3.702-2.459,5.934-2.459h33.574c4.633,0,8.385,3.752,8.393,8.385l0.025,25.18
			c0,27.782,22.587,50.369,50.361,50.369h25.18c27.774,0,50.361-22.587,50.361-50.361v-58.754c0-4.642,3.752-8.393,8.393-8.393
			h33.574c4.642,0,8.393,3.752,8.393,8.393v58.754C323.202,458.427,278.02,503.609,222.481,503.609"/>
	</g>
	<path style="fill:#546A79;" d="M146.964,377.486H96.603c-4.642,0-8.393-3.752-8.393-8.393v-41.967h67.148v41.967
		C155.358,373.734,151.597,377.486,146.964,377.486"/>
	<path style="fill:#DBB780;" d="M197.3,108.896H46.218V16.551c0-4.625,3.752-8.377,8.377-8.377h134.329
		c4.625,0,8.377,3.752,8.377,8.377V108.896z"/>
	<g>
		<path style="fill:#F4E197;" d="M138.571,41.748h-33.574c-4.642,0-8.393-3.752-8.393-8.393c0-4.642,3.752-8.393,8.393-8.393h33.574
			c4.642,0,8.393,3.752,8.393,8.393C146.964,37.996,143.212,41.748,138.571,41.748"/>
		<path style="fill:#F4E197;" d="M138.571,66.928h-33.574c-4.642,0-8.393-3.752-8.393-8.393s3.752-8.393,8.393-8.393h33.574
			c4.642,0,8.393,3.752,8.393,8.393S143.212,66.928,138.571,66.928"/>
		<path style="fill:#F4E197;" d="M104.997,66.928c-4.642,0-8.393-3.752-8.393-8.393v-25.18c0-4.642,3.752-8.393,8.393-8.393
			c4.642,0,8.393,3.752,8.393,8.393v25.18C113.39,63.177,109.639,66.928,104.997,66.928"/>
		<path style="fill:#F4E197;" d="M138.571,92.109c-4.642,0-8.393-3.752-8.393-8.393v-25.18c0-4.642,3.752-8.393,8.393-8.393
			c4.642,0,8.393,3.752,8.393,8.393v25.18C146.964,88.357,143.212,92.109,138.571,92.109"/>
		<path style="fill:#F4E197;" d="M138.571,92.109h-33.574c-4.642,0-8.393-3.752-8.393-8.393c0-4.642,3.752-8.393,8.393-8.393h33.574
			c4.642,0,8.393,3.752,8.393,8.393C146.964,88.357,143.212,92.109,138.571,92.109"/>
		<path style="fill:#F4E197;" d="M104.997,117.289c-4.642,0-8.393-3.752-8.393-8.393v-25.18c0-4.642,3.752-8.393,8.393-8.393
			c4.642,0,8.393,3.752,8.393,8.393v25.18C113.39,113.537,109.639,117.289,104.997,117.289"/>
	</g>
	<path style="fill:#38454F;" d="M4.251,131.429v108.552c0,16.048,13.153,29.05,29.377,29.05s29.377,13.001,29.377,29.041v14.403
		c0,8.091,6.631,14.647,14.814,14.647h87.879c8.184,0,14.814-6.555,14.814-14.647v-14.403c0-16.04,13.153-29.041,29.377-29.041
		s29.377-13.001,29.377-29.05V131.429c0-12.439-10.198-22.536-22.788-22.536H27.039C14.449,108.892,4.251,118.99,4.251,131.429"/>
	<path style="fill:#F4E197;" d="M138.571,41.748c4.642,0,8.393-3.752,8.393-8.393V8.174h-16.787v25.18
		C130.177,37.996,133.929,41.748,138.571,41.748"/>
</g>
<g>
</g>
<g>
</g>
<g>
</g>
<g>
</g>
<g>
</g>
<g>
</g>
<g>
</g>
<g>
</g>
<g>
</g>
<g>
</g>
<g>
</g>
<g>
</g>
<g>
</g>
<g>
</g>
<g>
</g>
</svg>
