<?xml version="1.0" encoding="iso-8859-1"?>
<!-- Generator: Adobe Illustrator 19.0.0, SVG Export Plug-In . SVG Version: 6.00 Build 0)  -->
<svg version="1.1" id="Layer_1" xmlns="http://www.w3.org/2000/svg" xmlns:xlink="http://www.w3.org/1999/xlink" x="0px" y="0px"
	 viewBox="0 0 503.607 503.607" style="enable-background:new 0 0 503.607 503.607;" xml:space="preserve">
<g>
	<path style="fill:#DBB780;" d="M285.364,352.41c-4.172,0-7.789-3.106-8.318-7.353c-2.3-18.39,0.101-29.78,2.031-38.929
		c2.006-9.501,3.215-15.242-1.41-25.927c-1.838-4.247,0.126-9.191,4.373-11.037c4.255-1.847,9.199,0.126,11.037,4.373
		c6.748,15.587,4.65,25.533,2.426,36.058c-1.754,8.335-3.752,17.786-1.796,33.381c0.571,4.6-2.694,8.796-7.294,9.367
		C286.061,352.384,285.717,352.41,285.364,352.41"/>
	<path style="fill:#C03A2B;" d="M268.59,352.402c-2.837,0-5.347-1.41-6.866-3.559c-10.886-13.874-10.374-25.885-9.921-36.495
		c0.428-9.997,0.797-18.633-7.076-30.963c-2.493-3.911-1.343-9.099,2.56-11.591s9.098-1.343,11.591,2.56
		c10.718,16.795,10.156,30.057,9.703,40.708c-0.411,9.619-0.713,16.569,6.572,25.692c1.183,1.494,1.83,3.332,1.83,5.237
		C276.984,348.633,273.223,352.402,268.59,352.402"/>
	<path style="fill:#178E47;" d="M302.164,352.41c-4.633,0-8.393-3.752-8.393-8.393c0-10.87,5.422-17.937,10.676-24.769
		c6.799-8.855,14.504-18.885,14.504-42.379c0-4.642,3.76-8.393,8.393-8.393s8.393,3.752,8.393,8.393
		c0,29.201-10.391,42.723-17.979,52.61c-4.734,6.152-7.202,9.602-7.202,14.537C310.557,348.658,306.797,352.41,302.164,352.41"/>
	<path style="fill:#DBB780;" d="M285.381,243.295c-3.248,0-6.337-1.897-7.705-5.061c-6.748-15.587-4.65-25.533-2.426-36.05
		c1.754-8.343,3.752-17.786,1.796-33.389c-0.571-4.6,2.694-8.796,7.285-9.367c4.574-0.537,8.796,2.678,9.375,7.286
		c2.3,18.398-0.109,29.78-2.031,38.929c-2.006,9.501-3.215,15.242,1.402,25.927c1.847,4.247-0.117,9.191-4.373,11.037
		C287.622,243.077,286.489,243.295,285.381,243.295"/>
	<path style="fill:#C03A2B;" d="M318.959,243.295c-2.77,0-5.481-1.368-7.084-3.878c-10.718-16.787-10.156-30.049-9.703-40.708
		c0.411-9.61,0.713-16.56-6.572-25.684c-1.184-1.494-1.83-3.341-1.83-5.238c0-4.642,3.76-8.41,8.393-8.41
		c2.862,0,5.397,1.427,6.908,3.618c10.836,13.849,10.332,25.843,9.879,36.436c-0.428,9.997-0.797,18.625,7.076,30.955
		c2.493,3.903,1.351,9.098-2.56,11.591C322.073,242.867,320.504,243.295,318.959,243.295"/>
	<path style="fill:#178E47;" d="M243.41,243.295c-4.633,0-8.393-3.752-8.393-8.393c0-29.201,10.391-42.723,17.979-52.61
		c4.734-6.152,7.202-9.602,7.202-14.537c0-4.642,3.76-8.393,8.393-8.393s8.393,3.752,8.393,8.393
		c0,10.87-5.422,17.937-10.676,24.769c-6.799,8.855-14.504,18.885-14.504,42.378C251.803,239.543,248.043,243.295,243.41,243.295"/>
	<g>
		<path style="fill:#ECF0F1;" d="M453.246,503.607h-33.574c-4.633,0-8.393-3.752-8.393-8.393V100.721
			c0-27.774-22.587-50.361-50.361-50.361c-27.774,0-50.361,22.587-50.361,50.361v67.03c0,4.642-3.76,8.393-8.393,8.393H268.59
			c-4.633,0-8.393-3.752-8.393-8.393v-67.03C260.197,45.182,305.379,0,360.918,0s100.721,45.182,100.721,100.721v394.492
			C461.639,499.855,457.879,503.607,453.246,503.607"/>
		<path style="fill:#ECF0F1;" d="M209.836,503.607h-8.393c-55.539,0-100.721-45.182-100.721-100.721v-25.399
			c0-4.642,3.76-8.393,8.393-8.393h33.574c4.633,0,8.393,3.752,8.393,8.393v25.399c0,27.774,22.587,50.361,50.361,50.361h8.393
			c27.774,0,50.361-22.587,50.361-50.361v-58.872c0-4.633,3.76-8.393,8.393-8.393h33.574c4.633,0,8.393,3.76,8.393,8.393v58.872
			C310.557,458.425,265.375,503.607,209.836,503.607"/>
	</g>
	<path style="fill:#95A5A5;" d="M184.656,134.073H67.148V24.959c0-9.266,7.521-16.787,16.787-16.787h83.934
		c9.266,0,16.787,7.521,16.787,16.787V134.073z"/>
	<path style="fill:#ECF0F1;" d="M201.443,327.123H50.361c-4.633,0-8.393-3.752-8.393-8.393V142.467c0-4.642,3.76-8.393,8.393-8.393
		h151.082c4.633,0,8.393,3.752,8.393,8.393v176.262C209.836,323.371,206.076,327.123,201.443,327.123"/>
	<path style="fill:#95A5A5;" d="M151.082,377.483h-50.361c-4.633,0-8.393-3.752-8.393-8.393v-41.967h67.148v41.967
		C159.475,373.731,155.715,377.483,151.082,377.483"/>
	<polygon style="fill:#ECF0F1;" points="92.328,66.929 159.475,66.929 159.475,41.749 92.328,41.749 	"/>
</g>
<g>
</g>
<g>
</g>
<g>
</g>
<g>
</g>
<g>
</g>
<g>
</g>
<g>
</g>
<g>
</g>
<g>
</g>
<g>
</g>
<g>
</g>
<g>
</g>
<g>
</g>
<g>
</g>
<g>
</g>
</svg>
