<?xml version="1.0" encoding="iso-8859-1"?>
<!-- Generator: Adobe Illustrator 19.0.0, SVG Export Plug-In . SVG Version: 6.00 Build 0)  -->
<svg version="1.1" id="Layer_1" xmlns="http://www.w3.org/2000/svg" xmlns:xlink="http://www.w3.org/1999/xlink" x="0px" y="0px"
	 viewBox="0 0 503.607 503.607" style="enable-background:new 0 0 503.607 503.607;" xml:space="preserve">
<g>
	<path style="fill:#DBB780;" d="M281.168,360.696c-4.172,0-7.789-3.106-8.318-7.353c-2.3-18.39,0.101-29.78,2.031-38.929
		c2.006-9.501,3.215-15.243-1.41-25.927c-1.838-4.247,0.126-9.191,4.373-11.037c4.255-1.847,9.199,0.126,11.037,4.373
		c6.748,15.587,4.65,25.533,2.426,36.058c-1.754,8.335-3.752,17.786-1.796,33.381c0.571,4.6-2.694,8.796-7.294,9.367
		C281.864,360.671,281.52,360.696,281.168,360.696"/>
	<path style="fill:#C03A2B;" d="M264.393,360.689c-2.837,0-5.347-1.41-6.866-3.559c-10.886-13.874-10.374-25.885-9.921-36.495
		c0.428-9.997,0.797-18.633-7.076-30.963c-2.493-3.911-1.343-9.098,2.56-11.591c3.903-2.493,9.098-1.343,11.591,2.56
		c10.718,16.795,10.156,30.057,9.703,40.708c-0.411,9.619-0.713,16.569,6.572,25.692c1.183,1.494,1.83,3.332,1.83,5.238
		C272.787,356.92,269.027,360.689,264.393,360.689"/>
	<path style="fill:#178E47;" d="M297.967,360.696c-4.633,0-8.393-3.752-8.393-8.393c0-10.87,5.422-17.937,10.676-24.769
		c6.799-8.855,14.504-18.885,14.504-42.378c0-4.642,3.76-8.393,8.393-8.393c4.633,0,8.393,3.752,8.393,8.393
		c0,29.201-10.391,42.723-17.979,52.61c-4.734,6.152-7.202,9.602-7.202,14.537C306.361,356.945,302.6,360.696,297.967,360.696"/>
	<path style="fill:#ECF0F1;" d="M205.639,503.607h-25.18c-55.539,0-100.721-45.283-100.721-100.939v-8.393
		c0-4.642,3.76-8.393,8.393-8.393h33.574c4.633,0,8.393,3.752,8.393,8.393v8.393c0,27.891,22.587,50.579,50.361,50.579h25.18
		c27.774,0,50.361-22.587,50.361-50.361v-50.478c0-4.633,3.76-8.393,8.393-8.393h33.574c4.633,0,8.393,3.76,8.393,8.393v50.478
		C306.361,458.425,261.179,503.607,205.639,503.607"/>
	<path style="fill:#DBB780;" d="M289.578,251.582c-3.248,0-6.337-1.897-7.705-5.061c-6.748-15.587-4.65-25.533-2.426-36.05
		c1.754-8.343,3.752-17.786,1.796-33.389c-0.571-4.6,2.694-8.796,7.286-9.367c4.574-0.537,8.796,2.678,9.375,7.286
		c2.3,18.398-0.109,29.78-2.031,38.929c-2.006,9.501-3.215,15.242,1.402,25.927c1.847,4.247-0.117,9.191-4.373,11.037
		C291.819,251.363,290.686,251.582,289.578,251.582"/>
	<path style="fill:#C03A2B;" d="M323.156,251.582c-2.77,0-5.481-1.368-7.084-3.878c-10.718-16.787-10.156-30.049-9.703-40.708
		c0.411-9.61,0.713-16.56-6.572-25.684c-1.183-1.494-1.83-3.341-1.83-5.238c0-4.642,3.76-8.41,8.393-8.41
		c2.862,0,5.397,1.427,6.908,3.618c10.836,13.849,10.332,25.843,9.879,36.436c-0.428,9.997-0.797,18.625,7.076,30.955
		c2.493,3.903,1.351,9.098-2.56,11.591C326.27,251.154,324.7,251.582,323.156,251.582"/>
	<path style="fill:#178E47;" d="M247.607,251.582c-4.633,0-8.393-3.752-8.393-8.393c0-29.201,10.391-42.723,17.979-52.61
		c4.734-6.152,7.202-9.602,7.202-14.537c0-4.642,3.76-8.393,8.393-8.393s8.393,3.752,8.393,8.393
		c0,10.87-5.422,17.937-10.676,24.769C263.705,209.665,256,219.695,256,243.188C256,247.83,252.24,251.582,247.607,251.582"/>
	<path style="fill:#ECF0F1;" d="M491.016,503.607h-33.574c-4.633,0-8.393-3.752-8.393-8.393V100.721
		c0-27.774-22.587-50.361-50.361-50.361h-33.574c-27.774,0-50.361,22.587-50.361,50.361v75.423c0,4.642-3.76,8.393-8.393,8.393
		h-33.574c-4.633,0-8.393-3.752-8.393-8.393v-75.423C264.393,45.182,309.575,0,365.115,0h33.574
		C454.228,0,499.41,45.182,499.41,100.721v394.492C499.41,499.855,495.65,503.607,491.016,503.607"/>
	<path style="fill:#DBB780;" d="M180.459,92.106H29.377V16.565c0-4.642,3.76-8.393,8.393-8.393h134.295
		c4.633,0,8.393,3.752,8.393,8.393V92.106z"/>
	<path style="fill:#38454F;" d="M180.459,327.123H29.377c-4.633,0-8.393-3.752-8.393-8.393v-25.18L4.197,268.377V100.5
		c0-4.642,3.76-8.393,8.393-8.393h184.656c4.633,0,8.393,3.752,8.393,8.393v167.877l-16.787,25.172v25.18
		C188.852,323.371,185.092,327.123,180.459,327.123"/>
	<path style="fill:#546A79;" d="M130.098,394.27H79.738c-4.633,0-8.393-3.752-8.393-8.393v-58.754h67.148v58.754
		C138.492,390.518,134.732,394.27,130.098,394.27"/>
	<g>
		<polygon style="fill:#F4E197;" points="79.738,66.929 96.525,66.929 96.525,50.142 79.738,50.142 		"/>
		<polygon style="fill:#F4E197;" points="54.557,92.11 71.344,92.11 71.344,8.175 54.557,8.175 		"/>
		<polygon style="fill:#F4E197;" points="113.311,66.929 130.098,66.929 130.098,50.142 113.311,50.142 		"/>
		<polygon style="fill:#F4E197;" points="138.492,92.11 155.279,92.11 155.279,8.175 138.492,8.175 		"/>
	</g>
	<g>
		<polygon style="fill:#546A79;" points="46.164,226.405 163.672,226.405 163.672,192.831 46.164,192.831 		"/>
		<polygon style="fill:#546A79;" points="62.951,293.552 146.885,293.552 146.885,259.978 62.951,259.978 		"/>
		<polygon style="fill:#546A79;" points="46.164,159.257 163.672,159.257 163.672,125.683 46.164,125.683 		"/>
	</g>
	<path style="fill:#38454F;" d="M146.885,369.09H62.951c-4.633,0-8.393-3.752-8.393-8.393c0-4.642,3.76-8.393,8.393-8.393h83.934
		c4.633,0,8.393,3.752,8.393,8.393C155.279,365.338,151.518,369.09,146.885,369.09"/>
</g>
<g>
</g>
<g>
</g>
<g>
</g>
<g>
</g>
<g>
</g>
<g>
</g>
<g>
</g>
<g>
</g>
<g>
</g>
<g>
</g>
<g>
</g>
<g>
</g>
<g>
</g>
<g>
</g>
<g>
</g>
</svg>
