<?xml version="1.0" encoding="iso-8859-1"?>
<!-- Generator: Adobe Illustrator 19.0.0, SVG Export Plug-In . SVG Version: 6.00 Build 0)  -->
<svg version="1.1" id="Layer_1" xmlns="http://www.w3.org/2000/svg" xmlns:xlink="http://www.w3.org/1999/xlink" x="0px" y="0px"
	 viewBox="0 0 503.607 503.607" style="enable-background:new 0 0 503.607 503.607;" xml:space="preserve">
<g>
	<path style="fill:#DBB780;" d="M255.992,360.696c-4.172,0-7.789-3.106-8.318-7.353c-2.3-18.39,0.101-29.78,2.031-38.929
		c2.006-9.501,3.215-15.243-1.41-25.927c-1.838-4.247,0.126-9.191,4.373-11.037c4.255-1.847,9.191,0.126,11.037,4.373
		c6.748,15.587,4.65,25.533,2.426,36.058c-1.763,8.335-3.752,17.786-1.805,33.381c0.579,4.6-2.686,8.796-7.286,9.367
		C256.688,360.671,256.336,360.696,255.992,360.696"/>
	<path style="fill:#C03A2B;" d="M239.213,360.689c-2.837,0-5.347-1.41-6.857-3.559c-10.886-13.874-10.383-25.885-9.921-36.495
		c0.428-9.997,0.797-18.633-7.084-30.963c-2.493-3.911-1.343-9.098,2.56-11.591c3.911-2.493,9.098-1.343,11.591,2.56
		c10.718,16.795,10.156,30.057,9.703,40.708c-0.411,9.619-0.713,16.569,6.572,25.692c1.183,1.494,1.83,3.332,1.83,5.238
		C247.607,356.92,243.855,360.689,239.213,360.689"/>
	<path style="fill:#178E47;" d="M272.787,360.696c-4.633,0-8.393-3.752-8.393-8.393c0-10.87,5.422-17.937,10.676-24.769
		c6.799-8.855,14.504-18.885,14.504-42.378c0-4.642,3.76-8.393,8.393-8.393c4.642,0,8.393,3.752,8.393,8.393
		c0,29.201-10.383,42.723-17.979,52.61c-4.726,6.152-7.202,9.602-7.202,14.537C281.18,356.945,277.428,360.696,272.787,360.696"/>
	<path style="fill:#ECF0F1;" d="M180.459,503.607h-25.18c-55.539,0-100.721-45.283-100.721-100.939v-8.393
		c0-4.642,3.752-8.393,8.393-8.393h33.574c4.642,0,8.393,3.752,8.393,8.393v8.393c0,27.891,22.587,50.579,50.361,50.579h25.18
		c27.774,0,50.361-22.587,50.361-50.361v-50.478c0-4.633,3.752-8.393,8.393-8.393h33.574c4.642,0,8.393,3.76,8.393,8.393v50.478
		C281.18,458.425,235.998,503.607,180.459,503.607"/>
	<path style="fill:#DBB780;" d="M264.402,251.582c-3.248,0-6.337-1.897-7.714-5.061c-6.74-15.587-4.642-25.533-2.417-36.05
		c1.754-8.343,3.743-17.786,1.796-33.389c-0.579-4.6,2.686-8.796,7.286-9.367c4.574-0.537,8.796,2.678,9.367,7.286
		c2.308,18.398-0.101,29.78-2.023,38.929c-2.006,9.501-3.223,15.242,1.402,25.927c1.847,4.247-0.118,9.191-4.373,11.037
		C266.643,251.363,265.51,251.582,264.402,251.582"/>
	<path style="fill:#C03A2B;" d="M297.976,251.582c-2.77,0-5.473-1.368-7.084-3.878c-10.718-16.787-10.156-30.049-9.694-40.708
		c0.411-9.61,0.705-16.56-6.572-25.684c-1.192-1.494-1.838-3.341-1.838-5.238c0-4.642,3.76-8.41,8.393-8.41
		c2.871,0,5.405,1.427,6.908,3.618c10.836,13.849,10.332,25.843,9.879,36.436c-0.428,9.997-0.797,18.625,7.076,30.955
		c2.501,3.903,1.351,9.098-2.56,11.591C301.09,251.154,299.528,251.582,297.976,251.582"/>
	<path style="fill:#178E47;" d="M222.426,251.582c-4.633,0-8.393-3.752-8.393-8.393c0-29.201,10.391-42.723,17.979-52.61
		c4.734-6.152,7.202-9.602,7.202-14.537c0-4.642,3.76-8.393,8.393-8.393c4.642,0,8.393,3.752,8.393,8.393
		c0,10.87-5.422,17.937-10.668,24.769c-6.807,8.855-14.512,18.885-14.512,42.378C230.82,247.83,227.068,251.582,222.426,251.582"/>
	<path style="fill:#ECF0F1;" d="M491.016,503.607h-33.574c-4.642,0-8.393-3.752-8.393-8.393V100.721
		c0-27.774-22.587-50.361-50.361-50.361h-58.754c-27.774,0-50.361,22.587-50.361,50.361v75.423c0,4.642-3.752,8.393-8.393,8.393
		h-33.574c-4.642,0-8.393-3.752-8.393-8.393v-75.423C239.213,45.182,284.395,0,339.934,0h58.754
		C454.228,0,499.41,45.182,499.41,100.721v394.492C499.41,499.855,495.658,503.607,491.016,503.607"/>
	<g>
		<path style="fill:#546A79;" d="M121.705,92.106H37.77V16.565c0-4.642,3.752-8.393,8.393-8.393h67.148
			c4.642,0,8.393,3.752,8.393,8.393V92.106z"/>
		<path style="fill:#546A79;" d="M104.918,402.664H54.557c-4.642,0-8.393-3.752-8.393-8.393v-58.754h67.148v58.754
			C113.311,398.912,109.56,402.664,104.918,402.664"/>
	</g>
	<g>
		<path style="fill:#38454F;" d="M121.705,377.483H37.77c-4.642,0-8.393-3.752-8.393-8.393s3.752-8.393,8.393-8.393h83.934
			c4.642,0,8.393,3.752,8.393,8.393S126.346,377.483,121.705,377.483"/>
		<path style="fill:#38454F;" d="M4.197,92.106v176.262c0,34.094,25.709,67.148,41.967,67.148h67.148
			c16.266,0,41.967-32.785,41.967-67.148V92.106H4.197z"/>
	</g>
	<g>
		<path style="fill:#546A79;" d="M121.705,226.401H37.77c-4.642,0-8.393-3.752-8.393-8.393c0-4.642,3.752-8.393,8.393-8.393h83.934
			c4.642,0,8.393,3.752,8.393,8.393C130.098,222.649,126.346,226.401,121.705,226.401"/>
		<path style="fill:#546A79;" d="M121.705,259.975H37.77c-4.642,0-8.393-3.752-8.393-8.393c0-4.642,3.752-8.393,8.393-8.393h83.934
			c4.642,0,8.393,3.752,8.393,8.393C130.098,256.223,126.346,259.975,121.705,259.975"/>
		<path style="fill:#546A79;" d="M121.705,293.549H37.77c-4.642,0-8.393-3.752-8.393-8.393c0-4.642,3.752-8.393,8.393-8.393h83.934
			c4.642,0,8.393,3.752,8.393,8.393C130.098,289.797,126.346,293.549,121.705,293.549"/>
	</g>
</g>
<g>
</g>
<g>
</g>
<g>
</g>
<g>
</g>
<g>
</g>
<g>
</g>
<g>
</g>
<g>
</g>
<g>
</g>
<g>
</g>
<g>
</g>
<g>
</g>
<g>
</g>
<g>
</g>
<g>
</g>
</svg>
