<?xml version="1.0" encoding="iso-8859-1"?>
<!-- Generator: Adobe Illustrator 19.0.0, SVG Export Plug-In . SVG Version: 6.00 Build 0)  -->
<svg version="1.1" id="Layer_1" xmlns="http://www.w3.org/2000/svg" xmlns:xlink="http://www.w3.org/1999/xlink" x="0px" y="0px"
	 viewBox="0 0 512 512" style="enable-background:new 0 0 512 512;" xml:space="preserve">
<g>
	<path style="fill:#717679;" d="M290.712,451.254h-69.424c-4.79,0-8.678-3.888-8.678-8.678v-95.458h86.78v95.458
		C299.39,447.367,295.502,451.254,290.712,451.254"/>
	<g>
		<path style="fill:#9EA7A9;" d="M256,138.847h-95.458v8.678v78.102c0,35.432,17.356,60.746,52.068,60.746v60.746H256h43.39v-60.746
			c34.712,0,52.068-26.754,52.068-60.746v-78.102v-8.678H256z"/>
		<path style="fill:#9EA7A9;" d="M221.288,104.136h-34.712v-86.78c0-9.58,7.775-17.356,17.356-17.356s17.356,7.775,17.356,17.356
			V104.136z"/>
		<path style="fill:#9EA7A9;" d="M325.424,104.136h-34.712v-86.78c0-9.58,7.775-17.356,17.356-17.356s17.356,7.775,17.356,17.356
			V104.136z"/>
		<polygon style="fill:#9EA7A9;" points="238.644,503.326 273.356,503.326 273.356,451.258 238.644,451.258 		"/>
		<path style="fill:#9EA7A9;" d="M238.644,390.508H212.61c-4.79,0-8.678-3.888-8.678-8.678c0-4.79,3.888-8.678,8.678-8.678h26.034
			c4.79,0,8.678,3.888,8.678,8.678C247.322,386.621,243.434,390.508,238.644,390.508"/>
		<path style="fill:#9EA7A9;" d="M299.39,390.508h-26.034c-4.79,0-8.678-3.888-8.678-8.678c0-4.79,3.888-8.678,8.678-8.678h26.034
			c4.79,0,8.678,3.888,8.678,8.678C308.068,386.621,304.18,390.508,299.39,390.508"/>
		<path style="fill:#9EA7A9;" d="M238.644,425.22H212.61c-4.79,0-8.678-3.888-8.678-8.678c0-4.79,3.888-8.678,8.678-8.678h26.034
			c4.79,0,8.678,3.888,8.678,8.678C247.322,421.333,243.434,425.22,238.644,425.22"/>
		<path style="fill:#9EA7A9;" d="M299.39,425.22h-26.034c-4.79,0-8.678-3.888-8.678-8.678c0-4.79,3.888-8.678,8.678-8.678h26.034
			c4.79,0,8.678,3.888,8.678,8.678C308.068,421.333,304.18,425.22,299.39,425.22"/>
	</g>
	<g>
		<path style="fill:#717679;" d="M351.458,138.847H160.542c-9.58,0-17.356-7.775-17.356-17.356s7.775-17.356,17.356-17.356h190.915
			c9.58,0,17.356,7.775,17.356,17.356S361.038,138.847,351.458,138.847"/>
		<path style="fill:#717679;" d="M394.847,512H117.153c-4.79,0-8.678-3.888-8.678-8.678c0-4.79,3.888-8.678,8.678-8.678h277.695
			c4.79,0,8.678,3.888,8.678,8.678C403.525,508.112,399.638,512,394.847,512"/>
	</g>
</g>
<g>
</g>
<g>
</g>
<g>
</g>
<g>
</g>
<g>
</g>
<g>
</g>
<g>
</g>
<g>
</g>
<g>
</g>
<g>
</g>
<g>
</g>
<g>
</g>
<g>
</g>
<g>
</g>
<g>
</g>
</svg>
