<svg id="Capa_1" enable-background="new 0 0 512 512" height="512" viewBox="0 0 512 512" width="512" xmlns="http://www.w3.org/2000/svg"><g><path d="m496 121h-75v-31c0-49.626-40.374-90-90-90s-90 40.374-90 90v31h-75c-8.284 0-15 6.716-15 15v105h-135c-8.284 0-15 6.716-15 15v241c0 8.284 6.716 15 15 15h480c8.284 0 15-6.716 15-15v-361c0-8.284-6.716-15-15-15zm-225-31c0-33.084 26.916-60 60-60s60 26.916 60 60v31h-120zm-240 181h240v211h-240zm450 211h-180v-226c0-8.284-6.716-15-15-15h-105v-90h60v45c0 8.284 6.716 15 15 15s15-6.716 15-15v-45h120v45c0 8.284 6.716 15 15 15s15-6.716 15-15v-45h60z"/><path d="m211 301c-8.284 0-15 6.716-15 15 0 24.813-20.187 45-45 45s-45-20.187-45-45c0-8.284-6.716-15-15-15s-15 6.716-15 15c0 41.355 33.645 75 75 75s75-33.645 75-75c0-8.284-6.716-15-15-15z"/></g></svg>